<?xml version="1.0" encoding="UTF-8" standalone="no"?>
<svg
   width="1000"
   height="1000"
   viewBox="0 0 1000 1000"
   version="1.1"
   id="svg1"
   xmlns="http://www.w3.org/2000/svg"
   xmlns:svg="http://www.w3.org/2000/svg">
  <defs
     id="defs1" />
  <g
     transform="matrix(1.174652,0,0,-1.174652,182.257,880)"
     id="g1">
    <path
       d="m 36,0 41,161 h 253 q 58,0 86,21 28,21 28,65 v 100 q 0,31 -12,49.5 -12,18.5 -34,26.5 -22,8 -56,8 H 126 Q 88,431 70.5,451.5 53,472 53,520 q 0,19 2,36 2,17 6.5,38.5 Q 66,616 73,647 h 35 v -14 q 0,-19 12,-30 12,-11 36,-11 h 191 q 75,0 116.5,-44.5 Q 505,503 505,425 V 199 Q 505,133 486,88.5 467,44 434,22 401,0 359,0 Z"
       fill="#000000"
       id="path1" />
  </g>
  <text
     xml:space="preserve"
     style="font-size:96px;writing-mode:lr-tb;direction:ltr;fill:#000000"
     x="251.53125"
     y="99.984375"
     id="text1"><tspan
       id="tspan1"
       x="251.53125"
       y="99.984375"
       style="font-style:normal;font-variant:normal;font-weight:bold;font-stretch:normal;font-family:sans-serif;-inkscape-font-specification:'sans-serif Bold';fill:#800080">1</tspan></text>
  <text
     xml:space="preserve"
     style="font-size:96px;writing-mode:lr-tb;direction:ltr;fill:#000000"
     x="461.32812"
     y="166.15625"
     id="text3"><tspan
       id="tspan3"
       x="461.32812"
       y="166.15625"
       style="font-style:normal;font-variant:normal;font-weight:bold;font-stretch:normal;font-family:sans-serif;-inkscape-font-specification:'sans-serif Bold';fill:#800080">2</tspan></text>
  <text
     xml:space="preserve"
     style="font-size:96px;writing-mode:lr-tb;direction:ltr;fill:#000000"
     x="679.0625"
     y="969.79688"
     id="text4"><tspan
       id="tspan4"
       x="679.0625"
       y="969.79688"
       style="font-style:normal;font-variant:normal;font-weight:bold;font-stretch:normal;font-family:sans-serif;-inkscape-font-specification:'sans-serif Bold';fill:#800080">4</tspan></text>
  <text
     xml:space="preserve"
     style="font-size:96px;writing-mode:lr-tb;direction:ltr;fill:#000000"
     x="216.3125"
     y="969.79688"
     id="text5"><tspan
       id="tspan5"
       x="216.3125"
       y="969.79688"
       style="font-style:normal;font-variant:normal;font-weight:bold;font-stretch:normal;font-family:sans-serif;-inkscape-font-specification:'sans-serif Bold';fill:#800080">5</tspan></text>
  <text
     xml:space="preserve"
     style="font-size:96px;writing-mode:lr-tb;direction:ltr;fill:#000000"
     x="676.4375"
     y="166.25"
     id="text2"><tspan
       id="tspan2"
       x="676.4375"
       y="166.25"
       style="font-style:normal;font-variant:normal;font-weight:bold;font-stretch:normal;font-family:sans-serif;-inkscape-font-specification:'sans-serif Bold';fill:#800080">3</tspan></text>
  <text
     xml:space="preserve"
     style="font-size:96px;writing-mode:lr-tb;direction:ltr;fill:#000000"
     x="193.71875"
     y="446.10938"
     id="text6"><tspan
       id="tspan6"
       x="193.71875"
       y="446.10938"
       style="font-style:normal;font-variant:normal;font-weight:bold;font-stretch:normal;font-family:sans-serif;-inkscape-font-specification:'sans-serif Bold';fill:#800080">6</tspan></text>
</svg>
