<?xml version="1.0" encoding="UTF-8" standalone="no"?>
<svg
   width="1000"
   height="1000"
   viewBox="0 0 1000 1000"
   version="1.1"
   id="svg1"
   xmlns="http://www.w3.org/2000/svg"
   xmlns:svg="http://www.w3.org/2000/svg">
  <defs
     id="defs1" />
  <g
     transform="matrix(0.856821,0,0,-0.856821,245.524,674.363)"
     id="g1">
    <path
       d="M 306,-7 Q 288,-7 278.5,2.5 269,12 269,34 v 32 q 0,34 7.5,57.5 Q 284,147 307,163 l 131,88 q 11,8 17.5,15 6.5,7 8.5,16.5 2,9.5 2,24.5 v 88 q 0,18 -10,27 -10,9 -29,9 H 137 Q 98,431 81.5,451.5 65,472 65,524 q 0,25 4,50 4,25 15,73 h 35 v -14 q 0,-20 13,-30.5 13,-10.5 34,-10.5 h 261 q 48,0 75,-26.5 Q 529,539 529,479 V 314 q 0,-26 -3.5,-45 Q 522,250 514,237 506,224 490,212 L 369,131 Q 352,119 348,105.5 344,92 344,71 V 34 Q 344,12 334,2.5 324,-7 306,-7 Z M 76,-240 v 480 q 0,43 7.5,66 7.5,23 23.5,30 l 20,9 10,-13 13,-533 Q 136,-216 123.5,-224.5 111,-233 94,-240 Z"
       fill="#000000"
       id="path1" />
  </g>
  <text
     xml:space="preserve"
     style="font-size:96px;writing-mode:lr-tb;direction:ltr;fill:#000000"
     x="297.53125"
     y="99.984375"
     id="text1"><tspan
       id="tspan1"
       x="297.53125"
       y="99.984375"
       style="font-style:normal;font-variant:normal;font-weight:bold;font-stretch:normal;font-family:sans-serif;-inkscape-font-specification:'sans-serif Bold';fill:#800080">1</tspan></text>
  <text
     xml:space="preserve"
     style="font-size:96px;writing-mode:lr-tb;direction:ltr;fill:#000000"
     x="451.32812"
     y="151.15625"
     id="text3"><tspan
       id="tspan3"
       x="451.32812"
       y="151.15625"
       style="font-style:normal;font-variant:normal;font-weight:bold;font-stretch:normal;font-family:sans-serif;-inkscape-font-specification:'sans-serif Bold';fill:#800080">2</tspan></text>
  <text
     xml:space="preserve"
     style="font-size:96px;writing-mode:lr-tb;direction:ltr;fill:#000000"
     x="613.4375"
     y="151.25"
     id="text2"><tspan
       id="tspan2"
       x="613.4375"
       y="151.25"
       style="font-style:normal;font-variant:normal;font-weight:bold;font-stretch:normal;font-family:sans-serif;-inkscape-font-specification:'sans-serif Bold';fill:#800080">3</tspan></text>
  <text
     xml:space="preserve"
     style="font-size:96px;writing-mode:lr-tb;direction:ltr;fill:#000000"
     x="301.0625"
     y="969.79688"
     id="text4"><tspan
       id="tspan4"
       x="301.0625"
       y="969.79688"
       style="font-style:normal;font-variant:normal;font-weight:bold;font-stretch:normal;font-family:sans-serif;-inkscape-font-specification:'sans-serif Bold';fill:#800080">4</tspan></text>
  <text
     xml:space="preserve"
     style="font-size:96px;writing-mode:lr-tb;direction:ltr;fill:#000000"
     x="234.3125"
     y="364.79688"
     id="text5"><tspan
       id="tspan5"
       x="234.3125"
       y="364.79688"
       style="font-style:normal;font-variant:normal;font-weight:bold;font-stretch:normal;font-family:sans-serif;-inkscape-font-specification:'sans-serif Bold';fill:#800080">5</tspan></text>
</svg>
