<?xml version="1.0" encoding="UTF-8" standalone="no"?>
<svg
   width="1000"
   height="1000"
   viewBox="0 0 1000 1000"
   version="1.1"
   id="svg1"
   xmlns="http://www.w3.org/2000/svg"
   xmlns:svg="http://www.w3.org/2000/svg">
  <defs
     id="defs1" />
  <g
     transform="matrix(1.163859,0,0,-1.163859,320.766,873.017)"
     id="g1">
    <path
       d="m 143,-6 q -7,29 -13,66 -6,37 -10.5,75.5 -4.5,38.5 -7.5,72.5 -3,34 -3,57 0,31 3,67.5 3,36.5 11.5,67.5 8.5,31 24.5,45 l 47,8 Q 187,422 182.5,392.5 178,363 176,336 q -2,-27 -2,-51 0,-44 7,-88.5 Q 188,152 199,110 210,68 223,30 209,18 195,9.5 181,1 161,-6 Z m 111,423 -153,18 q -35,4 -48,23 -13,19 -13,59 0,28 6,59 6,31 19,71 h 35 v -18 q 0,-17 9.5,-25.5 Q 119,595 138,593 l 72,-9 q 30,-3 44,-22 14,-19 14,-55 0,-21 -3.5,-42 Q 261,444 254,417 Z"
       fill="#000000"
       id="path1" />
  </g>
  <text
     xml:space="preserve"
     style="font-size:96px;writing-mode:lr-tb;direction:ltr;fill:#000000"
     x="487.53125"
     y="164.98438"
     id="text1"><tspan
       id="tspan1"
       x="487.53125"
       y="164.98438"
       style="font-style:normal;font-variant:normal;font-weight:bold;font-stretch:normal;font-family:sans-serif;-inkscape-font-specification:'sans-serif Bold';fill:#800080">1</tspan></text>
  <text
     xml:space="preserve"
     style="font-size:96px;writing-mode:lr-tb;direction:ltr;fill:#000000"
     x="644.32812"
     y="336.15625"
     id="text3"><tspan
       id="tspan3"
       x="644.32812"
       y="336.15625"
       style="font-style:normal;font-variant:normal;font-weight:bold;font-stretch:normal;font-family:sans-serif;-inkscape-font-specification:'sans-serif Bold';fill:#800080">2</tspan></text>
  <text
     xml:space="preserve"
     style="font-size:96px;writing-mode:lr-tb;direction:ltr;fill:#000000"
     x="286.4375"
     y="276.25"
     id="text2"><tspan
       id="tspan2"
       x="286.4375"
       y="276.25"
       style="font-style:normal;font-variant:normal;font-weight:bold;font-stretch:normal;font-family:sans-serif;-inkscape-font-specification:'sans-serif Bold';fill:#800080">3</tspan></text>
</svg>
